<svg version="1.1" id="Layer_1" xmlns="http://www.w3.org/2000/svg" xmlns:xlink="http://www.w3.org/1999/xlink" x="0px" y="0px"
	 width="100%" viewBox="0 0 312 92" enable-background="new 0 0 312 92" xml:space="preserve">
<path fill="#1B1C1D" opacity="1.000000" stroke="none" 
	d="
M228.000000,93.000000 
	C152.000015,93.000000 76.500046,93.000000 1.000051,93.000000 
	C1.000034,62.333366 1.000034,31.666731 1.000017,1.000071 
	C104.999939,1.000047 208.999878,1.000047 312.999878,1.000024 
	C312.999908,31.666595 312.999908,62.333191 312.999939,92.999893 
	C284.833344,93.000000 256.666656,93.000000 228.000000,93.000000 
M80.552711,61.337723 
	C82.988815,61.337723 85.424919,61.337723 87.903694,61.337723 
	C87.903694,51.498882 87.903694,41.982670 87.903694,32.644859 
	C85.127190,32.644859 82.742065,32.644859 79.892250,32.644859 
	C79.892250,37.592709 79.892250,42.120186 79.892250,48.025085 
	C76.939552,43.559742 74.457390,40.447006 72.685081,36.972218 
	C70.164505,32.030384 66.489044,31.252195 61.540962,32.793999 
	C61.540962,42.269619 61.540962,51.647991 61.540962,61.127769 
	C64.368187,61.127769 66.897308,61.127769 70.040451,61.127769 
	C70.040451,56.242344 70.040451,51.786278 70.040451,46.223244 
	C73.823128,51.826385 76.879272,56.353355 80.552711,61.337723 
M295.944550,37.661896 
	C290.206146,31.525604 282.589447,30.114689 276.256378,34.014858 
	C270.120209,37.793766 267.487518,45.010288 269.800201,51.711929 
	C272.656799,59.989651 282.093048,64.114326 290.078522,60.575764 
	C298.575806,56.810413 301.223419,47.407116 295.944550,37.661896 
M114.629745,55.805157 
	C111.424965,55.365536 108.220184,54.925919 104.707642,54.444080 
	C104.707642,53.099758 104.707642,51.729168 104.707642,50.110321 
	C107.714951,49.947014 110.457458,49.798084 113.394325,49.638599 
	C113.394325,47.529644 113.394325,45.792145 113.394325,44.109303 
	C104.537048,42.450703 104.537048,42.450703 105.215355,38.889076 
	C108.212967,38.889076 111.311935,38.889076 114.659431,38.889076 
	C114.659431,36.548721 114.659431,34.654396 114.659431,32.517326 
	C108.514366,32.517326 102.639503,32.517326 96.485367,32.517326 
	C96.485367,42.216492 96.485367,51.597343 96.485367,61.280853 
	C102.651344,61.280853 108.547768,61.280853 114.886215,61.280853 
	C114.886215,59.565929 114.886215,58.109138 114.629745,55.805157 
M126.088753,61.539982 
	C127.612129,60.710987 128.587860,59.332081 130.987015,60.787094 
	C134.651886,63.009750 138.749725,62.374668 142.117767,59.485195 
	C146.224716,55.961803 147.156372,51.326279 145.835846,46.322899 
	C144.681534,41.949230 141.664261,38.837227 137.134247,38.487461 
	C134.184296,38.259686 131.119736,39.516277 127.908089,40.146854 
	C127.773216,37.431751 127.620773,34.362915 127.460991,31.146255 
	C125.826431,31.146255 124.577545,31.146255 122.869331,31.146255 
	C122.869331,40.676277 122.810623,49.952244 122.973755,59.224300 
	C122.987762,60.020470 124.473831,60.790737 126.088753,61.539982 
M27.063158,60.062988 
	C27.063158,56.815109 27.063158,53.567230 27.063158,50.296635 
	C30.397829,50.110287 32.970341,49.966526 35.847950,49.805717 
	C35.742695,47.566620 35.662033,45.850784 35.578403,44.071735 
	C32.433456,43.917210 29.849398,43.790245 27.334568,43.666679 
	C27.334568,41.877220 27.334568,40.609707 27.334568,38.855148 
	C31.137531,38.855148 34.716236,38.855148 38.561226,38.855148 
	C38.561226,36.482941 38.561226,34.601513 38.561226,32.614494 
	C31.927299,32.614494 25.573254,32.614494 19.275181,32.614494 
	C19.275181,42.389072 19.275181,51.762875 19.275181,61.731380 
	C22.053457,61.434727 24.444220,61.179451 27.063158,60.062988 
M226.513901,41.034103 
	C224.820618,42.940903 223.127335,44.847702 220.396591,47.922787 
	C220.396591,41.350063 220.396591,36.320366 220.396591,30.873039 
	C218.355942,31.016214 216.978760,31.112839 215.550491,31.213047 
	C215.550491,41.423512 215.550491,51.183155 215.550491,61.261574 
	C217.153488,61.261574 218.527908,61.261574 220.068573,61.261574 
	C220.266281,58.537704 220.444305,56.084949 220.639572,53.394852 
	C225.560486,56.044865 226.787918,63.764973 234.385223,60.867519 
	C231.028168,57.113323 227.966400,53.689346 224.795731,50.143578 
	C228.145401,46.335991 231.214890,42.846916 234.284363,39.357841 
	C233.989975,38.907471 233.695587,38.457104 233.401199,38.006733 
	C231.269669,38.830906 229.138138,39.655079 226.513901,41.034103 
M172.342484,38.755093 
	C171.662933,39.391365 170.983368,40.027634 170.285141,40.681393 
	C169.506378,40.258926 168.647049,39.747704 167.750290,39.313866 
	C163.264999,37.143967 159.259399,38.252914 155.809357,41.437954 
	C152.343018,44.638016 151.560394,51.117241 153.893234,55.895134 
	C155.920273,60.046734 159.404922,62.527653 163.931015,61.749580 
	C167.648911,61.110447 171.172653,59.951729 174.912766,61.349674 
	C175.084839,61.413990 175.432281,61.009106 176.034576,60.586758 
	C176.034576,54.349506 176.155731,47.876205 175.902390,41.417595 
	C175.864929,40.462273 174.057327,39.576385 172.342484,38.755093 
M186.706146,38.691505 
	C186.241302,39.796707 185.404617,40.892014 185.374908,42.008785 
	C185.233292,47.332195 185.454880,52.666645 185.262360,57.986858 
	C185.123398,61.826710 186.880844,62.140194 190.216095,60.996265 
	C190.216095,56.694466 190.053040,52.380253 190.267181,48.084850 
	C190.441559,44.587360 192.421265,42.640491 196.120010,42.734909 
	C199.680847,42.825809 201.175629,44.845478 201.248749,48.159588 
	C201.318497,51.321053 201.446365,54.493362 201.268326,57.645061 
	C201.051620,61.480927 202.594162,62.353180 206.267578,60.905960 
	C206.267578,57.056965 206.272186,53.251900 206.264450,49.446854 
	C206.262421,48.448471 206.301010,47.440994 206.186310,46.453331 
	C205.508438,40.616283 200.321686,37.227455 194.629257,38.493031 
	C192.348221,39.000168 189.868942,38.615608 186.706146,38.691505 
M53.647671,59.827839 
	C53.647671,50.767284 53.647671,41.706726 53.647671,32.432358 
	C50.663776,32.432358 48.264412,32.432358 45.580917,32.432358 
	C45.580917,42.169670 45.580917,51.651863 45.580917,61.957703 
	C48.495304,61.483418 50.977848,61.079411 53.647671,59.827839 
M261.226196,32.394688 
	C258.961884,32.394688 256.697571,32.394688 254.322113,32.394688 
	C254.322113,42.269951 254.322113,51.667259 254.322113,61.226845 
	C257.025330,61.226845 259.434174,61.226845 261.906525,61.226845 
	C261.906525,51.603786 261.906525,42.306252 261.226196,32.394688 
M245.828232,56.879509 
	C244.273743,56.910450 242.661621,56.734573 241.211136,57.138752 
	C240.903931,57.224350 240.810165,59.632080 241.324905,60.590134 
	C241.697632,61.283875 243.934326,61.876118 244.138733,61.605717 
	C245.060791,60.385941 245.554733,58.842541 245.828232,56.879509 
z"/>
<path fill="#DBDDDE" opacity="1.000000" stroke="none" 
	d="
M80.244064,61.109024 
	C76.879272,56.353355 73.823128,51.826385 70.040451,46.223244 
	C70.040451,51.786278 70.040451,56.242344 70.040451,61.127769 
	C66.897308,61.127769 64.368187,61.127769 61.540962,61.127769 
	C61.540962,51.647991 61.540962,42.269619 61.540962,32.793999 
	C66.489044,31.252195 70.164505,32.030384 72.685081,36.972218 
	C74.457390,40.447006 76.939552,43.559742 79.892250,48.025085 
	C79.892250,42.120186 79.892250,37.592709 79.892250,32.644859 
	C82.742065,32.644859 85.127190,32.644859 87.903694,32.644859 
	C87.903694,41.982670 87.903694,51.498882 87.903694,61.337723 
	C85.424919,61.337723 82.988815,61.337723 80.244064,61.109024 
z"/>
<path fill="#DEE0E1" opacity="1.000000" stroke="none" 
	d="
M296.148560,37.977226 
	C301.223419,47.407116 298.575806,56.810413 290.078522,60.575764 
	C282.093048,64.114326 272.656799,59.989651 269.800201,51.711929 
	C267.487518,45.010288 270.120209,37.793766 276.256378,34.014858 
	C282.589447,30.114689 290.206146,31.525604 296.148560,37.977226 
M284.409668,54.218643 
	C289.571777,52.821732 291.826294,49.049007 290.338318,44.297657 
	C289.033661,40.131672 285.288635,38.308414 281.338654,39.916153 
	C277.739899,41.380924 275.878967,46.738552 278.231750,50.505638 
	C279.290253,52.200466 281.769836,53.007786 284.409668,54.218643 
z"/>
<path fill="#D6D8D9" opacity="1.000000" stroke="none" 
	d="
M114.757980,56.228752 
	C114.886215,58.109138 114.886215,59.565929 114.886215,61.280853 
	C108.547768,61.280853 102.651344,61.280853 96.485367,61.280853 
	C96.485367,51.597343 96.485367,42.216492 96.485367,32.517326 
	C102.639503,32.517326 108.514366,32.517326 114.659431,32.517326 
	C114.659431,34.654396 114.659431,36.548721 114.659431,38.889076 
	C111.311935,38.889076 108.212967,38.889076 105.215355,38.889076 
	C104.537048,42.450703 104.537048,42.450703 113.394325,44.109303 
	C113.394325,45.792145 113.394325,47.529644 113.394325,49.638599 
	C110.457458,49.798084 107.714951,49.947014 104.707642,50.110321 
	C104.707642,51.729168 104.707642,53.099758 104.707642,54.444080 
	C108.220184,54.925919 111.424965,55.365536 114.757980,56.228752 
z"/>
<path fill="#D4D6D7" opacity="1.000000" stroke="none" 
	d="
M125.682419,61.556511 
	C124.473831,60.790737 122.987762,60.020470 122.973755,59.224300 
	C122.810623,49.952244 122.869331,40.676277 122.869331,31.146255 
	C124.577545,31.146255 125.826431,31.146255 127.460991,31.146255 
	C127.620773,34.362915 127.773216,37.431751 127.908089,40.146854 
	C131.119736,39.516277 134.184296,38.259686 137.134247,38.487461 
	C141.664261,38.837227 144.681534,41.949230 145.835846,46.322899 
	C147.156372,51.326279 146.224716,55.961803 142.117767,59.485195 
	C138.749725,62.374668 134.651886,63.009750 130.987015,60.787094 
	C128.587860,59.332081 127.612129,60.710987 125.682419,61.556511 
M134.510849,42.672001 
	C133.695999,42.788475 132.807556,42.734856 132.078735,43.050171 
	C128.470322,44.611309 126.754776,48.581898 128.057724,52.586052 
	C129.300598,56.405540 131.993286,58.301235 136.024246,57.382965 
	C140.442825,56.376392 141.434464,52.932884 141.133163,48.993752 
	C140.864532,45.482048 139.089340,43.135868 134.510849,42.672001 
z"/>
<path fill="#DBDDDE" opacity="1.000000" stroke="none" 
	d="
M26.949070,60.493580 
	C24.444220,61.179451 22.053457,61.434727 19.275181,61.731380 
	C19.275181,51.762875 19.275181,42.389072 19.275181,32.614494 
	C25.573254,32.614494 31.927299,32.614494 38.561226,32.614494 
	C38.561226,34.601513 38.561226,36.482941 38.561226,38.855148 
	C34.716236,38.855148 31.137531,38.855148 27.334568,38.855148 
	C27.334568,40.609707 27.334568,41.877220 27.334568,43.666679 
	C29.849398,43.790245 32.433456,43.917210 35.578403,44.071735 
	C35.662033,45.850784 35.742695,47.566620 35.847950,49.805717 
	C32.970341,49.966526 30.397829,50.110287 27.063158,50.296635 
	C27.063158,53.567230 27.063158,56.815109 26.949070,60.493580 
z"/>
<path fill="#D3D4D5" opacity="1.000000" stroke="none" 
	d="
M226.760254,40.756676 
	C229.138138,39.655079 231.269669,38.830906 233.401199,38.006733 
	C233.695587,38.457104 233.989975,38.907471 234.284363,39.357841 
	C231.214890,42.846916 228.145401,46.335991 224.795731,50.143578 
	C227.966400,53.689346 231.028168,57.113323 234.385223,60.867519 
	C226.787918,63.764973 225.560486,56.044865 220.639572,53.394852 
	C220.444305,56.084949 220.266281,58.537704 220.068573,61.261574 
	C218.527908,61.261574 217.153488,61.261574 215.550491,61.261574 
	C215.550491,51.183155 215.550491,41.423512 215.550491,31.213047 
	C216.978760,31.112839 218.355942,31.016214 220.396591,30.873039 
	C220.396591,36.320366 220.396591,41.350063 220.396591,47.922787 
	C223.127335,44.847702 224.820618,42.940903 226.760254,40.756676 
z"/>
<path fill="#D4D6D7" opacity="1.000000" stroke="none" 
	d="
M172.705597,38.706734 
	C174.057327,39.576385 175.864929,40.462273 175.902390,41.417595 
	C176.155731,47.876205 176.034576,54.349506 176.034576,60.586758 
	C175.432281,61.009106 175.084839,61.413990 174.912766,61.349674 
	C171.172653,59.951729 167.648911,61.110447 163.931015,61.749580 
	C159.404922,62.527653 155.920273,60.046734 153.893234,55.895134 
	C151.560394,51.117241 152.343018,44.638016 155.809357,41.437954 
	C159.259399,38.252914 163.264999,37.143967 167.750290,39.313866 
	C168.647049,39.747704 169.506378,40.258926 170.285141,40.681393 
	C170.983368,40.027634 171.662933,39.391365 172.705597,38.706734 
M157.807175,52.046124 
	C158.775024,55.733429 161.068542,57.903366 164.972855,57.565178 
	C168.643799,57.247204 170.503616,54.757389 171.021652,51.281898 
	C171.710342,46.661419 169.022736,43.006828 164.843491,42.701958 
	C160.214798,42.364296 157.874222,45.150692 157.807175,52.046124 
z"/>
<path fill="#D0D2D3" opacity="1.000000" stroke="none" 
	d="
M187.093018,38.664215 
	C189.868942,38.615608 192.348221,39.000168 194.629257,38.493031 
	C200.321686,37.227455 205.508438,40.616283 206.186310,46.453331 
	C206.301010,47.440994 206.262421,48.448471 206.264450,49.446854 
	C206.272186,53.251900 206.267578,57.056965 206.267578,60.905960 
	C202.594162,62.353180 201.051620,61.480927 201.268326,57.645061 
	C201.446365,54.493362 201.318497,51.321053 201.248749,48.159588 
	C201.175629,44.845478 199.680847,42.825809 196.120010,42.734909 
	C192.421265,42.640491 190.441559,44.587360 190.267181,48.084850 
	C190.053040,52.380253 190.216095,56.694466 190.216095,60.996265 
	C186.880844,62.140194 185.123398,61.826710 185.262360,57.986858 
	C185.454880,52.666645 185.233292,47.332195 185.374908,42.008785 
	C185.404617,40.892014 186.241302,39.796707 187.093018,38.664215 
z"/>
<path fill="#D0D2D3" opacity="1.000000" stroke="none" 
	d="
M53.554031,60.251621 
	C50.977848,61.079411 48.495304,61.483418 45.580917,61.957703 
	C45.580917,51.651863 45.580917,42.169670 45.580917,32.432358 
	C48.264412,32.432358 50.663776,32.432358 53.647671,32.432358 
	C53.647671,41.706726 53.647671,50.767284 53.554031,60.251621 
z"/>
<path fill="#DCDEDF" opacity="1.000000" stroke="none" 
	d="
M261.566345,32.701702 
	C261.906525,42.306252 261.906525,51.603786 261.906525,61.226845 
	C259.434174,61.226845 257.025330,61.226845 254.322113,61.226845 
	C254.322113,51.667259 254.322113,42.269951 254.322113,32.394688 
	C256.697571,32.394688 258.961884,32.394688 261.566345,32.701702 
z"/>
<path fill="#D2D4D5" opacity="1.000000" stroke="none" 
	d="
M246.015594,57.147636 
	C245.554733,58.842541 245.060791,60.385941 244.138733,61.605717 
	C243.934326,61.876118 241.697632,61.283875 241.324905,60.590134 
	C240.810165,59.632080 240.903931,57.224350 241.211136,57.138752 
	C242.661621,56.734573 244.273743,56.910450 246.015594,57.147636 
z"/>
<path fill="#242627" opacity="1.000000" stroke="none" 
	d="
M284.007141,54.218220 
	C281.769836,53.007786 279.290253,52.200466 278.231750,50.505638 
	C275.878967,46.738552 277.739899,41.380924 281.338654,39.916153 
	C285.288635,38.308414 289.033661,40.131672 290.338318,44.297657 
	C291.826294,49.049007 289.571777,52.821732 284.007141,54.218220 
z"/>
<path fill="#212324" opacity="1.000000" stroke="none" 
	d="
M134.926788,42.698483 
	C139.089340,43.135868 140.864532,45.482048 141.133163,48.993752 
	C141.434464,52.932884 140.442825,56.376392 136.024246,57.382965 
	C131.993286,58.301235 129.300598,56.405540 128.057724,52.586052 
	C126.754776,48.581898 128.470322,44.611309 132.078735,43.050171 
	C132.807556,42.734856 133.695999,42.788475 134.926788,42.698483 
z"/>
<path fill="#222425" opacity="1.000000" stroke="none" 
	d="
M157.746353,51.634727 
	C157.874222,45.150692 160.214798,42.364296 164.843491,42.701958 
	C169.022736,43.006828 171.710342,46.661419 171.021652,51.281898 
	C170.503616,54.757389 168.643799,57.247204 164.972855,57.565178 
	C161.068542,57.903366 158.775024,55.733429 157.746353,51.634727 
z"/>
</svg>